<svg width="17" height="16" viewBox="0 0 17 16" fill="none" xmlns="http://www.w3.org/2000/svg">
<g id="shopping-cart-01" clip-path="url(#clip0_16415_3914)">
<path id="Icon" d="M1.83301 1.33337H2.70378C2.8678 1.33337 2.9498 1.33337 3.0158 1.36353C3.07395 1.39011 3.12324 1.43286 3.15777 1.48667C3.19696 1.54774 3.20856 1.62892 3.23176 1.79128L3.54729 4.00004M3.54729 4.00004L4.24855 9.15431C4.33755 9.80839 4.38204 10.1354 4.53841 10.3816C4.67619 10.5985 4.87373 10.771 5.10724 10.8783C5.37225 11 5.7023 11 6.36241 11H12.0677C12.696 11 13.0102 11 13.267 10.887C13.4934 10.7873 13.6876 10.6266 13.8279 10.4229C13.987 10.1918 14.0458 9.88315 14.1633 9.26588L15.0457 4.63317C15.0871 4.41591 15.1078 4.30728 15.0778 4.22237C15.0515 4.14789 14.9996 4.08516 14.9314 4.04539C14.8536 4.00004 14.743 4.00004 14.5218 4.00004H3.54729ZM7.16634 14C7.16634 14.3682 6.86786 14.6667 6.49967 14.6667C6.13148 14.6667 5.83301 14.3682 5.83301 14C5.83301 13.6319 6.13148 13.3334 6.49967 13.3334C6.86786 13.3334 7.16634 13.6319 7.16634 14ZM12.4997 14C12.4997 14.3682 12.2012 14.6667 11.833 14.6667C11.4648 14.6667 11.1663 14.3682 11.1663 14C11.1663 13.6319 11.4648 13.3334 11.833 13.3334C12.2012 13.3334 12.4997 13.6319 12.4997 14Z" stroke="white" stroke-width="2" stroke-linecap="round" stroke-linejoin="round"/>
</g>
<defs>
<clipPath id="clip0_16415_3914">
<rect width="16" height="16" fill="white" transform="translate(0.5)"/>
</clipPath>
</defs>
</svg>
