<svg width="33" height="32" viewBox="0 0 33 32" fill="none" xmlns="http://www.w3.org/2000/svg">
<g id="filter-funnel-02">
<path id="Icon" d="M5.0142 7.55583C4.00574 6.42873 3.50152 5.86518 3.4825 5.38624C3.46598 4.97018 3.64477 4.57029 3.96585 4.30518C4.33546 4 5.09166 4 6.60405 4H26.3946C27.907 4 28.6632 4 29.0328 4.30518C29.3539 4.57029 29.5327 4.97018 29.5162 5.38624C29.4972 5.86518 28.9929 6.42873 27.9845 7.55583L20.3762 16.0592C20.1751 16.2839 20.0746 16.3963 20.0029 16.5241C19.9394 16.6375 19.8927 16.7596 19.8645 16.8865C19.8327 17.0295 19.8327 17.1803 19.8327 17.4817V24.6112C19.8327 24.8719 19.8327 25.0023 19.7906 25.115C19.7535 25.2146 19.693 25.3039 19.6143 25.3754C19.5253 25.4563 19.4043 25.5047 19.1622 25.6015L14.6288 27.4149C14.1388 27.6109 13.8937 27.7089 13.697 27.668C13.525 27.6323 13.3741 27.5301 13.277 27.3837C13.166 27.2162 13.166 26.9523 13.166 26.4245V17.4817C13.166 17.1803 13.166 17.0295 13.1342 16.8865C13.1059 16.7596 13.0593 16.6375 12.9957 16.5241C12.9241 16.3963 12.8235 16.2839 12.6225 16.0592L5.0142 7.55583Z" stroke="white" stroke-width="3" stroke-linecap="round" stroke-linejoin="round"/>
</g>
</svg>
