<svg width="24" height="24" viewBox="0 0 24 24" fill="none" xmlns="http://www.w3.org/2000/svg">
<g id="diamond-01">
<path id="Icon" d="M2.49954 8.99951H21.4995M9.99954 2.99951L7.99954 8.99951L11.9995 20.4995L15.9995 8.99951L13.9995 2.99951M12.6141 20.262L21.5727 9.51166C21.7246 9.32946 21.8005 9.23837 21.8295 9.13668C21.8551 9.04702 21.8551 8.952 21.8295 8.86235C21.8005 8.76066 21.7246 8.66956 21.5727 8.48736L17.2394 3.28736C17.1512 3.18156 17.1072 3.12865 17.0531 3.09062C17.0052 3.05692 16.9518 3.03189 16.8953 3.01668C16.8314 2.99951 16.7626 2.99951 16.6248 2.99951H7.37424C7.2365 2.99951 7.16764 2.99951 7.10382 3.01668C7.04728 3.03189 6.99385 3.05692 6.94596 3.09062C6.89192 3.12865 6.84783 3.18156 6.75966 3.28736L2.42633 8.48736C2.2745 8.66956 2.19858 8.76065 2.16957 8.86234C2.144 8.952 2.144 9.04702 2.16957 9.13668C2.19858 9.23836 2.2745 9.32946 2.42633 9.51166L11.385 20.262C11.596 20.5153 11.7015 20.6419 11.8279 20.6881C11.9387 20.7286 12.0603 20.7286 12.1712 20.6881C12.2975 20.6419 12.4031 20.5153 12.6141 20.262Z" stroke="#6E7070" stroke-width="1.5" stroke-linecap="round" stroke-linejoin="round"/>
</g>
</svg>
