<svg width="24" height="24" viewBox="0 0 24 24" fill="none" xmlns="http://www.w3.org/2000/svg">
<g id="thumbs-up">
<path id="Icon" d="M7 21.9995V10.9995M2 12.9995V19.9995C2 21.1041 2.89543 21.9995 4 21.9995H17.4262C18.907 21.9995 20.1662 20.9192 20.3914 19.4557L21.4683 12.4557C21.7479 10.6384 20.3418 8.99951 18.5032 8.99951H15C14.4477 8.99951 14 8.5518 14 7.99951V4.46535C14 3.10351 12.896 1.99951 11.5342 1.99951C11.2093 1.99951 10.915 2.19081 10.7831 2.48763L7.26394 10.4057C7.10344 10.7668 6.74532 10.9995 6.35013 10.9995H4C2.89543 10.9995 2 11.8949 2 12.9995Z" stroke="#6E7070" stroke-width="1.5" stroke-linecap="round" stroke-linejoin="round"/>
</g>
</svg>
