<svg width="24" height="24" viewBox="0 0 24 24" fill="none" xmlns="http://www.w3.org/2000/svg">
<g id="Group">
<g id="Group_2">
<path id="Path" d="M17.6 15.7998V17.6998C17.6 18.0998 17.4 18.3998 17.1 18.5998L13.2 20.9998C12.5 21.3998 11.6 21.3998 10.9 20.9998L7 18.5998C6.7 18.3998 6.5 17.9998 6.5 17.6998V15.7998" stroke="#1F222C" stroke-width="1.5" stroke-linecap="round" stroke-linejoin="round"/>
<path id="Path_2" fill-rule="evenodd" clip-rule="evenodd" d="M17.4001 9.1998L12.0001 12.6998L6.6001 9.1998L12.0001 5.7998L17.4001 9.1998Z" stroke="#1F222C" stroke-width="1.5" stroke-linecap="round" stroke-linejoin="round"/>
<path id="Path_3" fill-rule="evenodd" clip-rule="evenodd" d="M17.4 9.19971L21.5 11.7997C22.1 12.1997 22.1 13.0997 21.5 13.4997L18.5 15.3997C17.8 15.7997 17 15.7997 16.4 15.3997L12 12.6997L7.60005 15.4997C6.90005 15.8997 6.10005 15.8997 5.50005 15.4997L2.50005 13.5997C1.90005 13.1997 1.90005 12.2997 2.50005 11.8997L6.60005 9.29971L2.50005 6.59971C1.90005 6.19971 1.90005 5.29971 2.50005 4.89971L5.50005 2.99971C6.20005 2.59971 7.00005 2.59971 7.60005 2.99971L12 5.79971L16.4 2.99971C17.1 2.59971 17.9 2.59971 18.5 2.99971L21.5 4.89971C22.1 5.29971 22.1 6.19971 21.5 6.59971L17.4 9.19971Z" stroke="#1F222C" stroke-width="1.5" stroke-linecap="round" stroke-linejoin="round"/>
</g>
</g>
</svg>
