<svg width="24" height="24" viewBox="0 0 24 24" fill="none" xmlns="http://www.w3.org/2000/svg">
<g id="coins-hand">
<path id="Icon" d="M13.5295 8.35137C12.9571 8.75946 12.2566 8.99951 11.5 8.99951C9.567 8.99951 8 7.43251 8 5.49951C8 3.56651 9.567 1.99951 11.5 1.99951C12.753 1.99951 13.8522 2.65793 14.4705 3.64765M6 20.0867H8.61029C8.95063 20.0867 9.28888 20.1272 9.61881 20.2082L12.3769 20.8784C12.9753 21.0242 13.5988 21.0384 14.2035 20.9209L17.253 20.3276C18.0585 20.1707 18.7996 19.785 19.3803 19.22L21.5379 17.1212C22.154 16.5229 22.154 15.5519 21.5379 14.9526C20.9832 14.4129 20.1047 14.3522 19.4771 14.8098L16.9626 16.6444C16.6025 16.9076 16.1643 17.0493 15.7137 17.0493H13.2855L14.8311 17.0493C15.7022 17.0493 16.4079 16.3628 16.4079 15.5154V15.2087C16.4079 14.505 15.9156 13.8915 15.2141 13.7214L12.8286 13.1413C12.4404 13.0471 12.0428 12.9995 11.6431 12.9995C10.6783 12.9995 8.93189 13.7983 8.93189 13.7983L6 15.0244M20 6.49951C20 8.43251 18.433 9.99951 16.5 9.99951C14.567 9.99951 13 8.43251 13 6.49951C13 4.56651 14.567 2.99951 16.5 2.99951C18.433 2.99951 20 4.56651 20 6.49951ZM2 14.5995L2 20.3995C2 20.9596 2 21.2396 2.10899 21.4535C2.20487 21.6417 2.35785 21.7946 2.54601 21.8905C2.75992 21.9995 3.03995 21.9995 3.6 21.9995H4.4C4.96005 21.9995 5.24008 21.9995 5.45399 21.8905C5.64215 21.7946 5.79513 21.6417 5.89101 21.4535C6 21.2396 6 20.9596 6 20.3995V14.5995C6 14.0395 6 13.7594 5.89101 13.5455C5.79513 13.3574 5.64215 13.2044 5.45399 13.1085C5.24008 12.9995 4.96005 12.9995 4.4 12.9995L3.6 12.9995C3.03995 12.9995 2.75992 12.9995 2.54601 13.1085C2.35785 13.2044 2.20487 13.3574 2.10899 13.5455C2 13.7594 2 14.0395 2 14.5995Z" stroke="#6E7070" stroke-width="1.5" stroke-linecap="round" stroke-linejoin="round"/>
</g>
</svg>
