<svg width="243" height="24" viewBox="0 0 243 24" fill="none" xmlns="http://www.w3.org/2000/svg">
<g id="Logo" clip-path="url(#clip0_16401_4943)">
<g id="URAL-FILTERS">
<path d="M10.4938 24C7.20552 24 4.63449 23.0829 2.78069 21.2486C0.926898 19.4144 0 16.7956 0 13.3923V0.397789H5.36276V13.1934C5.36276 15.4033 5.81518 16.9945 6.72001 17.9669C7.62484 18.9392 8.8938 19.4254 10.5269 19.4254C12.16 19.4254 13.429 18.9392 14.3338 17.9669C15.2386 16.9945 15.6911 15.4033 15.6911 13.1934V0.397789H20.9876V13.3923C20.9876 16.7956 20.0607 19.4144 18.2069 21.2486C16.3531 23.0829 13.7821 24 10.4938 24Z" fill="#FF5337"/>
<path d="M26.287 23.6022V0.397789H36.3174C38.3919 0.397789 40.1794 0.740331 41.6801 1.42541C43.1808 2.0884 44.3394 3.04972 45.156 4.30939C45.9725 5.56906 46.3808 7.07182 46.3808 8.81768C46.3808 10.5414 45.9725 12.0331 45.156 13.2928C44.3394 14.5304 43.1808 15.4807 41.6801 16.1436C40.1794 16.8066 38.3919 17.1381 36.3174 17.1381H29.2663L31.6498 14.7845V23.6022H26.287ZM41.0181 23.6022L35.225 15.1823H40.9519L46.8112 23.6022H41.0181ZM31.6498 15.3812L29.2663 12.8619H36.0194C37.6746 12.8619 38.9105 12.5083 39.727 11.8011C40.5436 11.0718 40.9519 10.0773 40.9519 8.81768C40.9519 7.53591 40.5436 6.54144 39.727 5.83425C38.9105 5.12707 37.6746 4.77348 36.0194 4.77348H29.2663L31.6498 2.22099V15.3812Z" fill="#FF5337"/>
<path d="M47.5842 23.6022L57.9125 0.397789H63.209L73.5704 23.6022H67.9428L59.4683 3.11602H61.587L53.0794 23.6022H47.5842ZM52.7483 18.6298L54.1718 14.5525H66.089L67.5456 18.6298H52.7483Z" fill="#FF5337"/>
<path d="M75.9746 23.6022V0.397789H81.3373V19.2265H92.9566V23.6022H75.9746Z" fill="#FF5337"/>
<path d="M94.9268 16.3425V12.1989H104.295V16.3425H94.9268Z" fill="#FF5337"/>
<path d="M113.688 10.8398H124.811V15.1492H113.688V10.8398ZM114.085 23.6022H108.722V0.397789H126.234V4.70718H114.085V23.6022Z" fill="#FF5337"/>
<path d="M129.865 23.6022V0.397789H135.227V23.6022H129.865Z" fill="#FF5337"/>
<path d="M140.727 23.6022V0.397789H146.09V19.2265H157.709V23.6022H140.727Z" fill="#FF5337"/>
<path d="M163.339 23.6022V4.77348H155.924V0.397789H176.117V4.77348H168.702V23.6022H163.339Z" fill="#FF5337"/>
<path d="M183.935 9.74586H195.091V13.9227H183.935V9.74586ZM184.332 19.2928H196.945V23.6022H179.003V0.397789H196.514V4.70718H184.332V19.2928Z" fill="#FF5337"/>
<path d="M201.212 23.6022V0.397789H211.242C213.317 0.397789 215.104 0.740331 216.605 1.42541C218.106 2.0884 219.264 3.04972 220.081 4.30939C220.897 5.56906 221.306 7.07182 221.306 8.81768C221.306 10.5414 220.897 12.0331 220.081 13.2928C219.264 14.5304 218.106 15.4807 216.605 16.1436C215.104 16.8066 213.317 17.1381 211.242 17.1381H204.191L206.575 14.7845V23.6022H201.212ZM215.943 23.6022L210.15 15.1823H215.877L221.736 23.6022H215.943ZM206.575 15.3812L204.191 12.8619H210.944C212.599 12.8619 213.835 12.5083 214.652 11.8011C215.468 11.0718 215.877 10.0773 215.877 8.81768C215.877 7.53591 215.468 6.54144 214.652 5.83425C213.835 5.12707 212.599 4.77348 210.944 4.77348H204.191L206.575 2.22099V15.3812Z" fill="#FF5337"/>
<path d="M233.168 24C231.314 24 229.538 23.7569 227.839 23.2707C226.139 22.7624 224.771 22.1105 223.734 21.3149L225.554 17.2707C226.548 17.9779 227.717 18.5635 229.063 19.0276C230.432 19.4696 231.811 19.6906 233.201 19.6906C234.261 19.6906 235.11 19.5912 235.75 19.3923C236.412 19.1713 236.898 18.8729 237.207 18.4972C237.516 18.1215 237.67 17.6906 237.67 17.2044C237.67 16.5856 237.428 16.0994 236.942 15.7459C236.457 15.3702 235.817 15.0718 235.022 14.8508C234.228 14.6077 233.345 14.3867 232.374 14.1878C231.425 13.9669 230.465 13.7017 229.494 13.3923C228.545 13.0829 227.673 12.6851 226.879 12.1989C226.084 11.7127 225.433 11.0718 224.926 10.2762C224.44 9.48066 224.197 8.46409 224.197 7.22652C224.197 5.90055 224.55 4.69613 225.257 3.61326C225.985 2.50829 227.066 1.63536 228.501 0.994474C229.957 0.331491 231.778 0 233.963 0C235.419 0 236.854 0.176795 238.266 0.530386C239.679 0.861877 240.926 1.37016 242.007 2.05525L240.352 6.1326C239.27 5.51381 238.189 5.06077 237.108 4.77348C236.026 4.46409 234.967 4.30939 233.93 4.30939C232.892 4.30939 232.043 4.43094 231.381 4.67403C230.719 4.91713 230.244 5.23757 229.957 5.63536C229.67 6.01105 229.527 6.45304 229.527 6.96133C229.527 7.55801 229.77 8.0442 230.255 8.41989C230.741 8.77348 231.381 9.06077 232.175 9.28177C232.97 9.50276 233.841 9.72376 234.79 9.94475C235.761 10.1657 236.721 10.4199 237.67 10.7072C238.641 10.9945 239.524 11.3812 240.319 11.8674C241.113 12.3536 241.753 12.9945 242.239 13.7901C242.746 14.5856 243 15.5912 243 16.8066C243 18.1105 242.636 19.3039 241.908 20.3867C241.179 21.4696 240.087 22.3425 238.63 23.0055C237.196 23.6685 235.375 24 233.168 24Z" fill="#FF5337"/>
</g>
</g>
<defs>
<clipPath id="clip0_16401_4943">
<rect width="243" height="24" fill="white"/>
</clipPath>
</defs>
</svg>
